# xmcd CD database file
#
# Track frame offsets:
#	150
#	17225
#	37305
#	58866
#	80407
#	105234
#	131636
#	147002
#	171263
#
# Disc length: 2485 seconds
#
# Revision: 0
# Processed by: cddbd v1.5.1PL2 Copyright (c) Steve Scherf et al.
# Submitted via: CDex 1.51
#
DISCID=7909b309
DTITLE=Cafe la maòana - Kolo od podzimu
DYEAR=2005
DGENRE=Jazz
TTITLE0=night
TTITLE1=give it away
TTITLE2=failure
TTITLE3=get up and love up
TTITLE4=sunrise
TTITLE5=so bad
TTITLE6=tap lap tululu
TTITLE7=snezna
TTITLE8=plavu s hlavou pod vodou
EXTD=YEAR: 2005
EXTT0=
EXTT1=
EXTT2=
EXTT3=
EXTT4=
EXTT5=
EXTT6=
EXTT7=
EXTT8=
PLAYORDER=
